<?xml version="1.0" standalone="no"?>
<!DOCTYPE svg PUBLIC "-//W3C//DTD SVG 20010904//EN"
 "http://www.w3.org/TR/2001/REC-SVG-20010904/DTD/svg10.dtd">
<svg version="1.0" xmlns="http://www.w3.org/2000/svg"
 width="321.000000pt" height="321.000000pt" viewBox="0 0 321.000000 321.000000"
 preserveAspectRatio="xMidYMid meet">
<metadata>
Created by potrace 1.14, written by Peter Selinger 2001-2017
</metadata>
<g transform="translate(0.000000,321.000000) scale(0.100000,-0.100000)"
fill="#000000" stroke="none">
<path d="M1395 3199 c-22 -4 -56 -10 -75 -14 -19 -3 -50 -8 -69 -12 -63 -10
-245 -74 -341 -120 -80 -38 -243 -134 -260 -153 -3 -3 -27 -23 -55 -44 -81
-64 -229 -219 -293 -308 -107 -150 -197 -336 -246 -513 -48 -171 -55 -235 -52
-455 2 -113 6 -216 10 -230 3 -14 11 -50 17 -80 42 -207 159 -461 298 -645 57
-76 218 -236 296 -296 188 -142 427 -250 665 -300 88 -18 137 -22 300 -22 209
0 237 2 374 34 458 108 860 425 1070 845 37 75 86 196 102 254 54 193 57 220
58 455 1 188 -2 244 -17 310 -10 44 -20 87 -22 96 -21 100 -125 344 -188 444
-134 213 -314 394 -514 517 -175 108 -351 179 -546 219 -78 16 -145 21 -287
23 -102 2 -203 -1 -225 -5z m123 -1302 c9 -10 7 -19 -4 -35 -12 -18 -19 -20
-35 -12 -19 10 -26 40 -12 53 11 11 40 8 51 -6z m212 -552 c10 -12 10 -18 0
-30 -27 -32 -71 -8 -56 30 3 8 14 15 24 15 11 0 25 -7 32 -15z"/>
</g>
</svg>
